<mxfile host="app.diagrams.net" modified="2022-09-24T07:47:31.825Z" agent="5.0 (Windows NT 10.0; Win64; x64) AppleWebKit/537.36 (KHTML, like Gecko) Chrome/105.0.0.0 Safari/537.36 Edg/105.0.1343.50" etag="xDmOIotGf5dbiU41JGgY" version="20.3.6" type="github">
  <diagram id="R2lEEEUBdFMjLlhIrx00" name="Page-1">
    <mxGraphModel dx="1421" dy="772" grid="1" gridSize="10" guides="1" tooltips="1" connect="1" arrows="1" fold="1" page="1" pageScale="1" pageWidth="827" pageHeight="1169" math="0" shadow="0" extFonts="Permanent Marker^https://fonts.googleapis.com/css?family=Permanent+Marker">
      <root>
        <mxCell id="0" />
        <mxCell id="1" parent="0" />
        <mxCell id="01idJhSZlLRtghU_HD-t-495" style="edgeStyle=orthogonalEdgeStyle;rounded=1;orthogonalLoop=1;jettySize=auto;html=1;exitX=1;exitY=0.5;exitDx=0;exitDy=0;fillColor=#f8cecc;strokeColor=#B85450;strokeWidth=2;" edge="1" parent="1" source="01idJhSZlLRtghU_HD-t-403">
          <mxGeometry relative="1" as="geometry">
            <mxPoint x="500" y="230" as="targetPoint" />
          </mxGeometry>
        </mxCell>
        <mxCell id="01idJhSZlLRtghU_HD-t-403" value="GNNEOC01" style="rhombus;whiteSpace=wrap;html=1;rounded=1;shadow=0;sketch=0;strokeWidth=2;fillColor=#dae8fc;strokeColor=#6c8ebf;" vertex="1" parent="1">
          <mxGeometry x="80" y="30" width="180" height="80" as="geometry" />
        </mxCell>
        <mxCell id="01idJhSZlLRtghU_HD-t-496" style="edgeStyle=orthogonalEdgeStyle;rounded=1;orthogonalLoop=1;jettySize=auto;html=1;exitX=0.333;exitY=0.875;exitDx=0;exitDy=0;fillColor=#f8cecc;strokeColor=#B85450;strokeWidth=2;exitPerimeter=0;" edge="1" parent="1" source="01idJhSZlLRtghU_HD-t-403">
          <mxGeometry relative="1" as="geometry">
            <mxPoint x="380" y="470" as="targetPoint" />
            <mxPoint x="140" y="310" as="sourcePoint" />
            <Array as="points">
              <mxPoint x="140" y="350" />
              <mxPoint x="300" y="350" />
              <mxPoint x="300" y="470" />
            </Array>
          </mxGeometry>
        </mxCell>
        <mxCell id="01idJhSZlLRtghU_HD-t-497" value="" style="whiteSpace=wrap;html=1;aspect=fixed;" vertex="1" parent="1">
          <mxGeometry x="580" y="290" width="160" height="160" as="geometry" />
        </mxCell>
        <mxCell id="01idJhSZlLRtghU_HD-t-498" value="Table" style="shape=table;startSize=30;container=1;collapsible=0;childLayout=tableLayout;rounded=1;fillColor=#dae8fc;strokeColor=default;strokeWidth=2;perimeterSpacing=0;swimlaneLine=1;" vertex="1" parent="1">
          <mxGeometry x="230" y="120" width="210" height="130" as="geometry" />
        </mxCell>
        <mxCell id="01idJhSZlLRtghU_HD-t-499" value="" style="shape=tableRow;horizontal=0;startSize=0;swimlaneHead=0;swimlaneBody=0;top=0;left=0;bottom=0;right=0;collapsible=0;dropTarget=0;fillColor=none;points=[[0,0.5],[1,0.5]];portConstraint=eastwest;" vertex="1" parent="01idJhSZlLRtghU_HD-t-498">
          <mxGeometry y="30" width="210" height="25" as="geometry" />
        </mxCell>
        <mxCell id="01idJhSZlLRtghU_HD-t-500" value="" style="shape=partialRectangle;html=1;whiteSpace=wrap;connectable=0;overflow=hidden;fillColor=none;top=0;left=0;bottom=0;right=0;pointerEvents=1;" vertex="1" parent="01idJhSZlLRtghU_HD-t-499">
          <mxGeometry width="40" height="25" as="geometry">
            <mxRectangle width="40" height="25" as="alternateBounds" />
          </mxGeometry>
        </mxCell>
        <mxCell id="01idJhSZlLRtghU_HD-t-501" value="" style="shape=partialRectangle;html=1;whiteSpace=wrap;connectable=0;overflow=hidden;fillColor=none;top=0;left=0;bottom=0;right=0;pointerEvents=1;" vertex="1" parent="01idJhSZlLRtghU_HD-t-499">
          <mxGeometry x="40" width="170" height="25" as="geometry">
            <mxRectangle width="170" height="25" as="alternateBounds" />
          </mxGeometry>
        </mxCell>
        <mxCell id="01idJhSZlLRtghU_HD-t-518" style="shape=tableRow;horizontal=0;startSize=0;swimlaneHead=0;swimlaneBody=0;top=0;left=0;bottom=0;right=0;collapsible=0;dropTarget=0;fillColor=none;points=[[0,0.5],[1,0.5]];portConstraint=eastwest;" vertex="1" parent="01idJhSZlLRtghU_HD-t-498">
          <mxGeometry y="55" width="210" height="25" as="geometry" />
        </mxCell>
        <mxCell id="01idJhSZlLRtghU_HD-t-519" style="shape=partialRectangle;html=1;whiteSpace=wrap;connectable=0;overflow=hidden;fillColor=none;top=0;left=0;bottom=0;right=0;pointerEvents=1;" vertex="1" parent="01idJhSZlLRtghU_HD-t-518">
          <mxGeometry width="40" height="25" as="geometry">
            <mxRectangle width="40" height="25" as="alternateBounds" />
          </mxGeometry>
        </mxCell>
        <mxCell id="01idJhSZlLRtghU_HD-t-520" style="shape=partialRectangle;html=1;whiteSpace=wrap;connectable=0;overflow=hidden;fillColor=none;top=0;left=0;bottom=0;right=0;pointerEvents=1;" vertex="1" parent="01idJhSZlLRtghU_HD-t-518">
          <mxGeometry x="40" width="170" height="25" as="geometry">
            <mxRectangle width="170" height="25" as="alternateBounds" />
          </mxGeometry>
        </mxCell>
        <mxCell id="01idJhSZlLRtghU_HD-t-521" style="shape=tableRow;horizontal=0;startSize=0;swimlaneHead=0;swimlaneBody=0;top=0;left=0;bottom=0;right=0;collapsible=0;dropTarget=0;fillColor=none;points=[[0,0.5],[1,0.5]];portConstraint=eastwest;" vertex="1" parent="01idJhSZlLRtghU_HD-t-498">
          <mxGeometry y="80" width="210" height="25" as="geometry" />
        </mxCell>
        <mxCell id="01idJhSZlLRtghU_HD-t-522" style="shape=partialRectangle;html=1;whiteSpace=wrap;connectable=0;overflow=hidden;fillColor=none;top=0;left=0;bottom=0;right=0;pointerEvents=1;" vertex="1" parent="01idJhSZlLRtghU_HD-t-521">
          <mxGeometry width="40" height="25" as="geometry">
            <mxRectangle width="40" height="25" as="alternateBounds" />
          </mxGeometry>
        </mxCell>
        <mxCell id="01idJhSZlLRtghU_HD-t-523" style="shape=partialRectangle;html=1;whiteSpace=wrap;connectable=0;overflow=hidden;fillColor=none;top=0;left=0;bottom=0;right=0;pointerEvents=1;" vertex="1" parent="01idJhSZlLRtghU_HD-t-521">
          <mxGeometry x="40" width="170" height="25" as="geometry">
            <mxRectangle width="170" height="25" as="alternateBounds" />
          </mxGeometry>
        </mxCell>
        <mxCell id="01idJhSZlLRtghU_HD-t-524" style="shape=tableRow;horizontal=0;startSize=0;swimlaneHead=0;swimlaneBody=0;top=0;left=0;bottom=0;right=0;collapsible=0;dropTarget=0;fillColor=none;points=[[0,0.5],[1,0.5]];portConstraint=eastwest;" vertex="1" parent="01idJhSZlLRtghU_HD-t-498">
          <mxGeometry y="105" width="210" height="25" as="geometry" />
        </mxCell>
        <mxCell id="01idJhSZlLRtghU_HD-t-525" style="shape=partialRectangle;html=1;whiteSpace=wrap;connectable=0;overflow=hidden;fillColor=none;top=0;left=0;bottom=0;right=0;pointerEvents=1;" vertex="1" parent="01idJhSZlLRtghU_HD-t-524">
          <mxGeometry width="40" height="25" as="geometry">
            <mxRectangle width="40" height="25" as="alternateBounds" />
          </mxGeometry>
        </mxCell>
        <mxCell id="01idJhSZlLRtghU_HD-t-526" style="shape=partialRectangle;html=1;whiteSpace=wrap;connectable=0;overflow=hidden;fillColor=none;top=0;left=0;bottom=0;right=0;pointerEvents=1;" vertex="1" parent="01idJhSZlLRtghU_HD-t-524">
          <mxGeometry x="40" width="170" height="25" as="geometry">
            <mxRectangle width="170" height="25" as="alternateBounds" />
          </mxGeometry>
        </mxCell>
      </root>
    </mxGraphModel>
  </diagram>
</mxfile>
